<?xml version="1.0" encoding="utf-8"?>
<!-- Uploaded to: SVG Repo, www.svgrepo.com, Generator: SVG Repo Mixer Tools -->
<svg fill="#000000" height="800px" width="800px" version="1.2" baseProfile="tiny" id="Layer_1" xmlns="http://www.w3.org/2000/svg" xmlns:xlink="http://www.w3.org/1999/xlink"
	  viewBox="-63 65 128 128" xml:space="preserve">
<path d="M-14.2,148v-19.3c0-7.8,6.4-14.2,14.2-14.2s14.2,6.4,14.2,14.2V148H-14.2z M1,83.8c20.6,0,37.4,16.7,37.4,37.4v48.2H49
	v-48.2c0-26.5-21.5-48-48-48s-48,21.5-48,48v48.2h10.6v-48.2C-36.4,100.5-19.6,83.8,1,83.8 M2.9,152.1h-5.8l-0.7,4.1h7.2L2.9,152.1z
	 M4.6,162.4h-9.3l-1.1,6.1H5.7L4.6,162.4z M7.1,176.7H-7.2l-1.3,8.1h17L7.1,176.7z"/>
</svg>